<svg id="visual" viewBox="0 0 900 600" width="900" height="600" xmlns="http://www.w3.org/2000/svg" xmlns:xlink="http://www.w3.org/1999/xlink" version="1.1"><path d="M0 103L13.7 95C27.3 87 54.7 71 82 76C109.3 81 136.7 107 163.8 111C191 115 218 97 245.2 84C272.3 71 299.7 63 327 71C354.3 79 381.7 103 409 103C436.3 103 463.7 79 491 68C518.3 57 545.7 59 573 70C600.3 81 627.7 101 654.8 100C682 99 709 77 736.2 70C763.3 63 790.7 71 818 82C845.3 93 872.7 107 886.3 114L900 121L900 0L886.3 0C872.7 0 845.3 0 818 0C790.7 0 763.3 0 736.2 0C709 0 682 0 654.8 0C627.7 0 600.3 0 573 0C545.7 0 518.3 0 491 0C463.7 0 436.3 0 409 0C381.7 0 354.3 0 327 0C299.7 0 272.3 0 245.2 0C218 0 191 0 163.8 0C136.7 0 109.3 0 82 0C54.7 0 27.3 0 13.7 0L0 0Z" fill="#ff749e"></path><path d="M0 343L13.7 338C27.3 333 54.7 323 82 318C109.3 313 136.7 313 163.8 295C191 277 218 241 245.2 226C272.3 211 299.7 217 327 248C354.3 279 381.7 335 409 331C436.3 327 463.7 263 491 234C518.3 205 545.7 211 573 210C600.3 209 627.7 201 654.8 189C682 177 709 161 736.2 157C763.3 153 790.7 161 818 192C845.3 223 872.7 277 886.3 304L900 331L900 119L886.3 112C872.7 105 845.3 91 818 80C790.7 69 763.3 61 736.2 68C709 75 682 97 654.8 98C627.7 99 600.3 79 573 68C545.7 57 518.3 55 491 66C463.7 77 436.3 101 409 101C381.7 101 354.3 77 327 69C299.7 61 272.3 69 245.2 82C218 95 191 113 163.8 109C136.7 105 109.3 79 82 74C54.7 69 27.3 85 13.7 93L0 101Z" fill="#ff4e83"></path><path d="M0 481L13.7 471C27.3 461 54.7 441 82 435C109.3 429 136.7 437 163.8 436C191 435 218 425 245.2 421C272.3 417 299.7 419 327 432C354.3 445 381.7 469 409 476C436.3 483 463.7 473 491 462C518.3 451 545.7 439 573 433C600.3 427 627.7 427 654.8 428C682 429 709 431 736.2 430C763.3 429 790.7 425 818 424C845.3 423 872.7 425 886.3 426L900 427L900 329L886.3 302C872.7 275 845.3 221 818 190C790.7 159 763.3 151 736.2 155C709 159 682 175 654.8 187C627.7 199 600.3 207 573 208C545.7 209 518.3 203 491 232C463.7 261 436.3 325 409 329C381.7 333 354.3 277 327 246C299.7 215 272.3 209 245.2 224C218 239 191 275 163.8 293C136.7 311 109.3 311 82 316C54.7 321 27.3 331 13.7 336L0 341Z" fill="#ff0066"></path><path d="M0 535L13.7 533C27.3 531 54.7 527 82 532C109.3 537 136.7 551 163.8 550C191 549 218 533 245.2 523C272.3 513 299.7 509 327 516C354.3 523 381.7 541 409 543C436.3 545 463.7 531 491 529C518.3 527 545.7 537 573 538C600.3 539 627.7 531 654.8 523C682 515 709 507 736.2 512C763.3 517 790.7 535 818 537C845.3 539 872.7 525 886.3 518L900 511L900 425L886.3 424C872.7 423 845.3 421 818 422C790.7 423 763.3 427 736.2 428C709 429 682 427 654.8 426C627.7 425 600.3 425 573 431C545.7 437 518.3 449 491 460C463.7 471 436.3 481 409 474C381.7 467 354.3 443 327 430C299.7 417 272.3 415 245.2 419C218 423 191 433 163.8 434C136.7 435 109.3 427 82 433C54.7 439 27.3 459 13.7 469L0 479Z" fill="#dd005a"></path><path d="M0 601L13.7 601C27.3 601 54.7 601 82 601C109.3 601 136.7 601 163.8 601C191 601 218 601 245.2 601C272.3 601 299.7 601 327 601C354.3 601 381.7 601 409 601C436.3 601 463.7 601 491 601C518.3 601 545.7 601 573 601C600.3 601 627.7 601 654.8 601C682 601 709 601 736.2 601C763.3 601 790.7 601 818 601C845.3 601 872.7 601 886.3 601L900 601L900 509L886.3 516C872.7 523 845.3 537 818 535C790.7 533 763.3 515 736.2 510C709 505 682 513 654.8 521C627.7 529 600.3 537 573 536C545.7 535 518.3 525 491 527C463.7 529 436.3 543 409 541C381.7 539 354.3 521 327 514C299.7 507 272.3 511 245.2 521C218 531 191 547 163.8 548C136.7 549 109.3 535 82 530C54.7 525 27.3 529 13.7 531L0 533Z" fill="#bb004d"></path></svg>